<?xml version="1.0" encoding="utf-8"?>
<!-- Svg Vector Icons : http://www.onlinewebfonts.com/icon -->
<!DOCTYPE svg PUBLIC "-//W3C//DTD SVG 1.1//EN" "http://www.w3.org/Graphics/SVG/1.1/DTD/svg11.dtd">
<svg version="1.1" xmlns="http://www.w3.org/2000/svg" xmlns:xlink="http://www.w3.org/1999/xlink" x="0px" y="0px" viewBox="0 0 1000 1000" enable-background="new 0 0 1000 1000" xml:space="preserve">
<metadata> Svg Vector Icons : http://www.onlinewebfonts.com/icon </metadata>
<g><path d="M688.4,150V80c0-38.6-33.7-70-75.4-70H386.9c-41.7,0-75.4,31.4-75.4,70v70H10v70h113.1v700c0,38.7,33.8,70,75.4,70h603.1c41.7,0,75.4-31.3,75.4-70V220H990v-70H688.4L688.4,150z M386.9,80h226.1v70H386.9V80L386.9,80z M801.5,920H198.4V220h603.1V920L801.5,920z M311.5,325h75.4v490h-75.4V325L311.5,325z M462.3,325h75.4v490h-75.4V325L462.3,325z M613.1,325h75.4v490h-75.4V325L613.1,325z"/></g>
</svg>